<?xml version="1.0" standalone="no"?>
<!DOCTYPE svg PUBLIC "-//W3C//DTD SVG 20010904//EN"
 "http://www.w3.org/TR/2001/REC-SVG-20010904/DTD/svg10.dtd">
<svg version="1.0" xmlns="http://www.w3.org/2000/svg"
 width="200.000000pt" height="200.000000pt" viewBox="0 0 200.000000 200.000000"
 preserveAspectRatio="xMidYMid meet">
<metadata>
Created by potrace 1.14, written by Peter Selinger 2001-2017
</metadata>
<g transform="translate(0.000000,200.000000) scale(0.100000,-0.100000)"
fill="#000000" stroke="none">
<path d="M924 1952 c2 -4 47 -27 100 -52 53 -25 96 -47 96 -50 0 -3 -28 -19
-63 -36 -51 -25 -67 -29 -87 -21 -35 15 -97 41 -152 65 -27 12 -48 17 -48 13
0 -5 47 -28 104 -52 101 -43 104 -44 80 -57 -41 -21 -73 -16 -178 27 -55 23
-101 39 -104 36 -5 -5 77 -42 156 -70 28 -11 52 -21 52 -24 0 -4 -17 -14 -38
-23 -35 -17 -115 -21 -106 -6 3 5 -41 25 -76 33 -3 1 -18 7 -35 14 -48 20 -66
21 -72 4 -4 -9 1 -20 13 -26 36 -21 117 -46 127 -40 6 4 7 1 2 -7 -6 -10 -2
-12 18 -8 40 8 22 -17 -26 -36 -42 -16 -43 -15 -175 28 -72 24 -132 40 -132
36 0 -7 48 -27 83 -34 7 -2 19 -6 27 -9 8 -3 40 -13 70 -23 30 -9 65 -25 78
-35 13 -10 30 -15 38 -12 9 3 60 -9 115 -28 l100 -33 -3 -43 c-1 -32 -7 -47
-25 -58 -13 -9 -20 -21 -17 -30 4 -9 -1 -18 -12 -22 -11 -3 -38 -19 -62 -35
-138 -94 -214 -247 -208 -417 3 -99 17 -150 55 -206 56 -82 153 -125 289 -125
l72 0 0 -78 0 -79 -80 -17 c-110 -23 -227 -74 -294 -126 -30 -23 -87 -82 -103
-107 -9 -13 -24 -23 -35 -23 -44 0 -158 -86 -158 -120 0 -4 -3 -15 -6 -24 -6
-15 66 -16 769 -16 599 0 776 3 779 12 14 42 -51 130 -118 158 -23 10 -69 45
-102 77 -129 124 -275 183 -474 192 -32 1 -38 16 -43 110 l-4 70 55 28 c72 36
141 105 170 168 97 211 -81 569 -297 598 -20 2 -48 12 -63 22 -22 15 -27 25
-24 51 1 18 -1 36 -5 40 -11 11 -8 54 3 54 6 0 24 -7 39 -15 41 -21 79 -26 84
-11 11 28 -41 63 -63 43 -9 -9 -11 -9 -6 0 4 7 -7 16 -29 24 -30 11 -35 18
-35 44 0 18 3 34 6 37 3 4 30 -5 60 -18 30 -13 54 -22 54 -19 0 2 25 -7 55
-21 30 -14 61 -24 67 -22 11 4 -92 48 -184 79 -46 16 -48 25 -5 42 26 11 37
12 62 1 51 -22 149 -65 178 -80 19 -9 27 -9 25 -2 -2 6 -52 32 -111 57 l-108
45 67 33 c37 18 70 31 73 29 3 -2 38 -18 76 -36 39 -18 91 -44 118 -57 26 -13
47 -20 47 -15 0 4 -54 33 -120 65 -66 31 -120 61 -120 67 0 5 -9 10 -19 10
-10 0 -67 23 -126 50 -111 52 -119 55 -111 42z m-320 -218 c3 -8 2 -12 -4 -9
-6 3 -10 10 -10 16 0 14 7 11 14 -7z m289 -59 c4 -8 3 -16 -1 -19 -13 -8 -35
11 -28 23 10 15 23 14 29 -4z m-41 -49 c9 0 14 -4 12 -8 -3 -4 2 -8 10 -8 16
0 19 -5 19 -35 0 -35 -5 -38 -43 -22 -8 4 -37 14 -65 22 -84 27 -83 26 -40 46
24 10 50 16 65 12 14 -3 33 -6 42 -7z m136 -41 c-3 -3 -9 2 -12 12 -6 14 -5
15 5 6 7 -7 10 -15 7 -18z m47 -5 c-3 -5 -12 -10 -18 -10 -7 0 -6 4 3 10 19
12 23 12 15 0z"/>
</g>
</svg>
